/* XPM */
static char *c5ef559acd6a4f4ba56a60bccdd7eb83[] = {
/* columns rows colors chars-per-pixel */
"64 64 126 2 ",
"   c #010101",
".  c #090606",
"X  c #070802",
"o  c #0D0C04",
"O  c #060609",
"+  c #080608",
"@  c #070909",
"#  c #0B0B0B",
"$  c #100D05",
"%  c #141306",
"&  c #181707",
"*  c #1A1807",
"=  c #11110C",
"-  c #1D1C09",
";  c #0F0F10",
":  c #0E1010",
">  c #141415",
",  c #1E1B16",
"<  c #191719",
"1  c #171818",
"2  c #1B1B1A",
"3  c #221E09",
"4  c #24220C",
"5  c #2A260E",
"6  c #2E2C0D",
"7  c #322F0E",
"8  c #35330F",
"9  c #38330E",
"0  c #38380F",
"q  c #232015",
"w  c #2A2716",
"e  c #2B2B11",
"r  c #332E14",
"t  c #312E18",
"y  c #373410",
"u  c #393611",
"i  c #3C3913",
"p  c #33311A",
"a  c #39381E",
"s  c #1E1E20",
"d  c #212121",
"f  c #423E14",
"g  c #413E19",
"h  c #444116",
"j  c #4A4515",
"k  c #4E4A16",
"l  c #45421B",
"z  c #504C17",
"x  c #504C1D",
"c  c #575219",
"v  c #59551A",
"b  c #5F591C",
"n  c #625D1D",
"m  c #65611E",
"M  c #746B1F",
"N  c #565121",
"B  c #5F5924",
"V  c #635D2A",
"C  c #6E6726",
"Z  c #6A662C",
"A  c #736D21",
"S  c #756F2A",
"D  c #777123",
"F  c #7D7724",
"G  c #7D7925",
"H  c #77732F",
"J  c #7C732A",
"K  c #817B26",
"L  c #817A28",
"P  c #8C842A",
"I  c #918528",
"U  c #928B2A",
"Y  c #9B932C",
"T  c #868132",
"R  c #8D8733",
"E  c #999034",
"W  c #A39B2F",
"Q  c #A69D30",
"!  c #A49C3E",
"~  c #ABA331",
"^  c #B6AE34",
"/  c #B9AD32",
"(  c #B0A73A",
")  c #B4AC3B",
"_  c #B9AD3C",
"`  c #B7B035",
"'  c #BBB135",
"]  c #C1B737",
"[  c #C3B937",
"{  c #C2B738",
"}  c #C4BA38",
"|  c #C9BE3A",
" . c #CDC23C",
".. c #D1C63C",
"X. c #D5CA3D",
"o. c #D9CE3F",
"O. c #DDD23F",
"+. c #AFA240",
"@. c #B1AB41",
"#. c #C0BA41",
"$. c #D5CA46",
"%. c #D9CE44",
"&. c #DED344",
"*. c #E1D541",
"=. c #E6DB42",
"-. c #EADE43",
";. c #E1D649",
":. c #E4DB48",
">. c #EBDF49",
",. c #EEE244",
"<. c #EFE44E",
"1. c #F2E545",
"2. c #F7EB47",
"3. c #FAED46",
"4. c #F1E649",
"5. c #F4E94B",
"6. c #FBEE48",
"7. c #FEF244",
"8. c #FFF44A",
"9. c #FFFD4C",
"0. c #F4E652",
"q. c #F4EA52",
"w. c #FAED52",
"e. c #FFFC53",
"r. c #FFFD5D",
"t. c None",
/* pixels */
"t.t.t.t.t.t.t.t.t.t.t.t.t.t.t.t.t.t.t.t.t.t.t.t.      4 j b D F D A b f -   %   t.t.t.t.t.t.t.t.t.t.t.t.t.t.t.t.t.t.t.t.t.t.t.t.",
"t.t.t.t.t.t.t.t.t.t.t.t.t.t.t.t.t.t.t.t.t.  X c W &.9.8.8.8.6.6.6.6.6.8.8.9...U f     t.t.t.t.t.t.t.t.t.t.t.t.t.t.t.t.t.t.t.t.t.",
"t.t.t.t.t.t.t.t.t.t.t.t.t.t.t.t.t.t.    v ] 9.8.8.8.9.8.8.8.8.9.8.9.8.9.8.8.3.8.8.9.~ 0     t.t.t.t.t.t.t.t.t.t.t.t.t.t.t.t.t.t.",
"t.t.t.t.t.t.t.t.t.t.t.t.t.t.t.t.    4 G K F F G G G G F G G G G G G G G G G F G G G G K b     t.t.t.t.t.t.t.t.t.t.t.t.t.t.t.t.t.",
"t.t.t.t.t.t.t.t.t.t.t.t.t.t.t.  J 9.7                                                             t.t.t.t.t.t.t.t.t.t.t.t.t.t.t.",
"t.t.t.t.t.t.t.t.t.t.t.t.t.  7 =.6.9.7 y 9.9.9.9.9.9...7 9.9.9.9.9.9.9.9.9.9.9.9.9.9.9.9.9.9.K     &   t.t.t.t.t.t.t.t.t.t.t.t.t.",
"t.t.t.t.t.t.t.t.t.t.t.t.  I 9.3.6.9.7 y 9.m 8 8 7 ..} 6 8.6.6.6.3.3.6.6.6.3.3.3.3.6.6.6.3.3.F     9.c   t.t.t.t.t.t.t.t.t.t.t.t.",
"t.t.t.t.t.t.t.t.t.t.t.X ..6.6.6.6.9.7 y 9.y       } } 6 8.6.6.6.6.6.6.6.9.9.9.9.9.8.6.6.6.3.F     9.8.Y   t.t.t.t.t.t.t.t.t.t.t.",
"t.t.t.t.t.t.t.t.t.  & ,.6.6.6.6.6.9.7 u 9.u       } } 6 8.3.6.6.6.6.6.9.          ] 6.6.6.6.F     9.6.8.|   t.t.t.t.t.t.t.t.t.t.",
"t.t.t.t.t.t.t.t.  - 3.6.6.6.6.6.6.e.7 u 9.y       } } 7 8.8.6.6.6.6.6.9.  Y ] ..  ] 6.6.6.6.F     9.6.6.3.o.  t.t.t.t.t.t.t.t.t.",
"t.t.t.t.t.t.t.t.& 3.3.3.6.6.6.6.6.9.7 y 9.y       } } 6 8.3.6.6.6.6.6.9.  ] 6.9.  } 6.6.6.6.F     9.6.6.6.6.X.  t.t.t.t.t.t.t.t.",
"t.t.t.t.t.t.t.X ,.3.3.3.6.6.6.6.6.9.7 y 9.y       } } r 8.6.6.6.6.6.6.9.  $.9.9.  } 6.6.3.3.F     9.6.6.6.6.6.{   t.t.t.t.t.t.t.",
"t.t.t.t.t.t.  ..6.6.6.6.6.6.6.6.6.9.7 y 9.y       [ } 6 8.6.6.6.6.6.3.9.          { 6.6.6.6.F     9.3.3.6.6.6.6.P   t.t.t.t.t.t.",
"t.t.t.t.t.  P 8.6.6.6.6.6.6.6.6.6.9.7 u 9.8       [ } 6 8.6.6.6.6.6.3.8.] } } } } ,.6.6.6.6.F     9.6.6.6.6.3.6.9.f   t.t.t.t.t.",
"t.t.t.t.t.7 8.6.6.6.6.6.6.6.6.6.3.9.7 y 9.y       } } 6 8.6.6.6.6.6.6.6.3.8.3.6.6.6.3.6.6.6.F     9.6.6.6.6.6.6.3.2.X t.t.t.t.t.",
"t.t.t.t.  :.6.6.6.6.6.6.6.6.6.6.8.9.7 y 9.y       } } 6 8.6.6.6.6.6.6.6.3.3.3.6.6.6.6.6.6.6.F     9.6.6.6.6.6.6.6.3.Q   t.t.t.t.",
"t.t.t.  D 6.6.6.6.6.6.6.6.6.6.6.6.9.7 y 9.y       [ } 6 8.6.6.6.6.6.6.6.6.6.6.6.6.6.6.6.3.3.F     9.3.3.6.6.6.6.6.6.9.e t.t.t.t.",
"t.t.t.  8.2.6.6.6.6.6.6.6.6.6.6.8.9.7 y 9.y       } [ 6 8.6.6.6.6.6.6.6.6.6.6.6.6.6.6.6.3.8.F     9.6.3.6.6.6.6.6.6.3. .  t.t.t.",
"t.t.  K 6.6.6.6.6.6.6.6.6.6.6.3.3.e.7 y 9.y       [ | 6 8.3.3.6.6.6.6.6.6.6.6.6.6.6.6.6.3.6.F     9.6.6.6.6.6.6.6.6.6.8.y t.t.t.",
"t.t.  2.6.6.6.6.6.6.6.6.6.6.6.6.6.9.7 y 9.5       { [ 6 8.8.3.3.6.6.6.6.6.6.6.6.6.6.6.6.6.3.K     9.6.3.6.6.6.6.6.6.3.6.'   t.t.",
"t.t.c 8.6.6.6.6.6.6.6.6.6.6.6.6.8.9.7 y 9.9.9.9.9.8.[ 6 8.6.6.3.6.6.6.6.6.6.6.6.6.6.6.6.3.&.    W 6.6.6.6.6.6.6.6.6.6.6.9.$ t.t.",
"t.  { 6.6.6.6.6.6.6.6.6.6.6.6.6.3.9.7 5  .| | | | | Y 6 8.6.6.3.6.6.6.6.3.3.6.6.6.6.6.6.&.    Q 8.6.6.6.6.6.6.3.6.6.6.6.6.F   t.",
"t.X 9.6.6.6.6.6.3.6.6.6.6.6.6.6.3.8.8                 * G G F F F F L L D F F F F F G L     ~ 6.6.3.6.6.6.6.6.6.6.6.6.6.3.o.  t.",
"t.c 8.6.6.6.6.6.6.6.6.6.6.6.6.6.6.8.i   O   O     O X +   O X O X O O O . @     . X O O   Q 6.6.6.6.6.6.6.6.6.6.6.6.3.3.3.9.$ t.",
"  W 3.3.6.6.6.6.6.6.6.6.6.6.6.6.6.8.i O O O         e g h j h g r         @ O X   O     Q 6.6.6.6.6.6.6.6.6.6.6.6.6.6.6.6.6.b t.",
"  &.6.3.6.6.6.6.6.6.6.6.6.6.6.6.3.8.i @   - C ) >.e.8.8.9.7.8.8.8.e.<./ S 3   O O .   U 8.6.6.6.6.6.6.6.6.6.6.6.6.6.6.6.3.6.Y   ",
"  9.3.6.6.6.6.6.6.6.6.6.6.6.6.6.3.8.r x | 9.5./ 1.6.3.8.T r.J e.3.6.4./ 6.9.%.B   O Q 6.6.6.6.6.6.6.6.6.6.6.6.6.6.6.6.6.3.3...  ",
"4 8.6.6.6.6.6.6.6.6.3.6.6.6.6.3.3.8.:.9.' i   Z 6.6.6...  o   ;.3.6.8.N   g / 9.$.6.6.6.6.6.6.6.6.6.6.6.6.6.6.6.6.6.6.6.6.3.3.  ",
"j 8.6.6.6.6.6.6.6.6.6.6.6.6.6.6.3.3.-.6   O @ 5 w.7.7.! > > ; @.7.8.0.3 O O   y 4.3.3.6.6.6.6.6.6.6.6.3.6.6.6.6.6.6.6.6.6.6.9.  ",
"n 8.6.6.6.6.6.6.6.6.6.6.6.6.6.6.6.6.& O + + + @ $ V Z q s , < , Z B X O X O X @ - 3.6.6.6.6.6.6.6.6.6.6.6.6.6.6.6.6.6.6.6.6.9.- ",
"D 6.6.6.6.6.6.6.6.6.6.6.6.6.6.6.8.A +   O + @ o ; > < s d 2 2 = ; + @ O O O . O O T 6.6.6.6.6.6.6.6.6.6.6.6.6.6.6.6.6.6.6.6.8.6 ",
"F 2.6.6.6.6.6.6.6.6.6.6.6.6.6.6.8.i O .   + . # # > 1 2 d s 2 1 ; @ @ o   X O   O z 8.6.6.6.6.6.6.6.6.6.6.6.6.6.6.6.6.6.6.3.8.y ",
"D 6.6.6.6.6.6.6.6.6.6.6.6.6.6.6.7.M O O O @ @ o # ; > 1 < < > > ; # # O   O .   O I 3.6.6.6.6.6.6.6.6.6.6.6.6.6.6.3.6.6.6.6.9.7 ",
"A 6.6.6.6.6.6.6.6.6.6.6.6.6.6.6.3.4.$ X @   5 g O + a = > > > % p   O l 4 X @ @ & 8.3.6.6.6.6.6.6.6.6.6.6.6.6.6.6.6.6.6.6.6.8.6 ",
"b 6.6.6.6.6.6.6.6.6.6.6.6.6.6.6.6.6.=.5   t e.8.4._ 8.w.u ; g w.8.( <.7.9.w   r -.6.6.3.6.6.6.3.6.6.6.6.6.6.6.6.6.6.6.6.6.6.9.% ",
"g 8.3.6.6.6.6.6.6.6.6.6.6.6.6.6.6.8.B #.+.8 ,.6.3.3.6.3.3.b 6.6.8.3.3.6.*.8 ) _ G 9.6.3.6.6.6.6.6.6.6.6.6.6.6.6.6.6.6.6.6.3.9.  ",
"- 8.3.3.6.6.6.6.6.6.6.6.6.6.6.6.6.8.i   3 R %.e.8.6.6.6.3.6.6.6.3.6.7.8.&.E e     g 3.3.6.6.6.6.6.6.6.6.6.6.6.6.6.6.6.6.6.6.,.  ",
"  9.3.3.6.6.6.6.6.6.6.6.6.6.6.6.6.8.u @ O     X g S P ~ { { #.~ P H h $       .   . 4 3.6.6.6.6.6.6.6.6.6.6.6.6.6.6.6.6.6.6.{   ",
"  $.8.3.6.6.6.6.6.6.6.6.6.6.6.6.6.8.i @ O O   O O O O O   O   O O O O X X O @   O O . 4 7.6.6.6.6.6.6.6.6.6.6.6.6.6.6.6.3.3.P   ",
"  U 3.3.6.6.6.6.6.6.6.6.6.6.6.6.6.6.u - K K K K F K K L   m G K K G L G G L L L L F D   - 6.6.6.6.6.6.6.6.6.6.6.3.6.6.6.6.8.j t.",
"t.f 8.3.3.6.6.6.6.6.6.6.6.6.6.6.6.9.y y 9...} } ] [ *.9.  ] 6.6.3.6.6.6.6.6.6.6.6.6.8.Q   - 6.6.6.6.6.6.6.6.6.6.6.6.6.6.6.9.  t.",
"t.  8.7.3.6.6.6.6.6.6.6.6.6.6.6.3.8.y y 9.6         F 9.  [ 6.6.6.6.6.6.6.6.6.6.6.6.6.6.Q   - 6.6.6.6.6.6.6.6.6.6.6.6.6.6.}   t.",
"t.  Q 3.6.6.6.6.6.6.6.6.6.6.6.6.6.8.u y 9.y         F 9.  } 6.6.6.6.6.6.6.6.6.6.6.6.6.6.8.Q   * 6.8.6.6.6.6.6.6.6.6.6.6.8.n X t.",
"t.t.i 8.6.6.6.6.6.6.6.6.6.6.6.6.6.9.8 y 9.8         F 9.  ] 6.6.6.6.6.6.6.6.6.6.6.6.6.6.6.8.~   - 8.6.6.6.6.6.6.6.6.6.6.8.  t.t.",
"t.t.  *.6.6.6.6.6.6.6.6.6.6.6.6.8.9.7 y 9.y         F 9.  } 6.6.6.6.6.6.6.6.6.6.6.6.6.6.6.6.9.    h 8.3.6.6.6.6.6.6.3.3.Y   t.t.",
"t.t.t.b 6.6.6.6.6.6.6.6.6.6.6.6.3.9.7 y 9.y         F 9.  [ 6.6.6.6.6.6.6.6.6.6.6.6.6.6.6.6.9.    8 8.6.6.6.6.6.6.3.3.9.% t.t.t.",
"t.t.t.  >.6.6.6.6.6.6.6.6.6.6.6.3.9.7 9 9.y         F 9.  [ 6.6.8.D F G K F F G K Y 6.6.6.6.9.    y 8.6.3.6.6.6.6.6.3.Q   t.t.t.",
"t.t.t.t.k 8.6.6.6.6.6.6.6.6.6.6.6.9.6 y 9.8         F 9.  } 6.6.9.  * y 8 9 y y o 8 8.6.6.6.9.    7 8.6.6.6.6.6.6.6.8.$ t.t.t.t.",
"t.t.t.t.  ] 3.6.6.6.6.6.6.6.6.6.6.9.r y 9.y         F 9.  ] 6.6.9.  K 8.9.8.8.9.y y 8.3.3.3.9.    y 8.3.6.6.6.6.3.8.D   t.t.t.t.",
"t.t.t.t.t.$ 8.3.6.6.6.6.6.6.6.6.6.9.y y 9.y         F 9.  } 6.6.9.  F 6.3.6.6.8.y y 8.3.3.3.9.    8 9.6.6.6.3.6.6.%.  t.t.t.t.t.",
"t.t.t.t.t.  c 8.6.3.6.6.6.6.6.6.6.8.y y 9.y         F 9.  [ 6.6.9.  F 6.6.6.6.8.y y 8.8.6.6.9.    y 8.3.6.6.6.6.8.& t.t.t.t.t.t.",
"t.t.t.t.t.t.  Y 8.3.6.6.6.6.3.6.6.8.y y 9.y         F 9.  } 6.6.9.  F 6.6.6.6.8.y y 8.6.6.6.9.    8 8.6.6.6.6.9.z   t.t.t.t.t.t.",
"t.t.t.t.t.t.t.  | 3.3.6.6.6.6.6.8.8.8 y 9.y         F 9.  [ 6.6.9.  F 3.3.3.3.8.y y 8.8.6.6.9.    8 8.3.6.3.8.K   t.t.t.t.t.t.t.",
"t.t.t.t.t.t.t.t.  %.6.6.6.6.6.6.3.8.8 8 9.8         F 9.  [ 6.6.9.  i G F F G K - y 8.3.6.6.9.    8 8.6.3.8.Y   t.t.t.t.t.t.t.t.",
"t.t.t.t.t.t.t.t.t.  X.6.6.6.6.6.8.8.y y 9.y         F 9.  [ 6.6.9.                e 8.8.3.3.9.    8 8.3.6.Y   t.t.t.t.t.t.t.t.t.",
"t.t.t.t.t.t.t.t.t.t.  { 6.6.6.6.6.8.y y 9.y         F 9.  ] 6.6.3.9.9.9.9.9.9.9.9.9.3.3.3.3.9.    8 8.9.L   t.t.t.t.t.t.t.t.t.t.",
"t.t.t.t.t.t.t.t.t.t.t.  P 9.2.6.8.8.8 9 9.6         F 9.  } 6.6.3.3.3.6.6.6.6.6.6.6.6.6.6.6.9.    8 9.k   t.t.t.t.t.t.t.t.t.t.t.",
"t.t.t.t.t.t.t.t.t.t.t.t.  f 2.6.3.8.8 8 9...[ ] ] [ O.9.  } 6.6.3.8.6.6.6.6.6.6.6.6.6.6.6.6.9.    K &   t.t.t.t.t.t.t.t.t.t.t.t.",
"t.t.t.t.t.t.t.t.t.t.t.t.t.X   Q 9.8.y - K F F F F F F K   Y [ [ } } } ] } ] } } ] [ } ] } [ ..  4   t.t.t.t.t.t.t.t.t.t.t.t.t.t.",
"t.t.t.t.t.t.t.t.t.t.t.t.t.t.t.. 6 ..i                                                           o t.t.t.t.t.t.t.t.t.t.t.t.t.t.t.",
"t.t.t.t.t.t.t.t.t.t.t.t.t.t.t.t.t.  $ K } ^ ^ ` ^ ^ ^ ` ] [ [ [ [ { ] ' ` ^ ^ ^ / ^ { | n   X t.t.t.t.t.t.t.t.t.t.t.t.t.t.t.t.t.",
"t.t.t.t.t.t.t.t.t.t.t.t.t.t.t.t.t.t.t.  $ F ^ 9.9.9.8.9.9.9.8.9.9.9.9.8.8.8.8.8.9.{ b     t.t.t.t.t.t.t.t.t.t.t.t.t.t.t.t.t.t.t.",
"t.t.t.t.t.t.t.t.t.t.t.t.t.t.t.t.t.t.t.t.t.    o k U  .3.9.8.8.8.8.8.8.9.,.^ K i     t.t.t.t.t.t.t.t.t.t.t.t.t.t.t.t.t.t.t.t.t.t.",
"t.t.t.t.t.t.t.t.t.t.t.t.t.t.t.t.t.t.t.t.t.t.t.t.t.        % 6 9 7 5 %         t.t.t.t.t.t.t.t.t.t.t.t.t.t.t.t.t.t.t.t.t.t.t.t.t."
};
