/* XPM */
static char *b88b867498174c9fcf5c76bf4875f300[] = {
/* columns rows colors chars-per-pixel */
"32 32 99 2 ",
"   c #010102",
".  c #0D0C04",
"X  c #07090C",
"o  c #090909",
"O  c #100F05",
"+  c #141206",
"@  c #1A1707",
"#  c #1B1807",
"$  c #14130A",
"%  c #1D1B09",
"&  c #0E0E11",
"*  c #151515",
"=  c #151518",
"-  c #18181B",
";  c #201E09",
":  c #23210B",
">  c #29260C",
",  c #2E2B0D",
"<  c #322F0E",
"1  c #35320F",
"2  c #272610",
"3  c #2D2B11",
"4  c #363311",
"5  c #393612",
"6  c #3D3A13",
"7  c #37351F",
"8  c #3A3418",
"9  c #202121",
"0  c #413E13",
"q  c #464214",
"w  c #4E4A16",
"e  c #45421A",
"r  c #514C17",
"t  c #534F18",
"y  c #57521A",
"u  c #5A5519",
"i  c #5D591B",
"p  c #635E1C",
"a  c #65601D",
"s  c #6B661F",
"d  c #5A5A23",
"f  c #635E21",
"g  c #676121",
"h  c #6C6621",
"j  c #6E6920",
"k  c #756E22",
"l  c #726C28",
"z  c #777423",
"x  c #797224",
"c  c #797924",
"v  c #7B7629",
"b  c #817F26",
"n  c #847D29",
"m  c #838127",
"M  c #858428",
"N  c #8B8628",
"B  c #8E8C2D",
"V  c #938C2C",
"C  c #97912B",
"Z  c #99932D",
"A  c #9F992E",
"S  c #928B32",
"D  c #999531",
"F  c #9F9830",
"G  c #A49D31",
"H  c #A89F30",
"J  c #AAA231",
"K  c #ABA833",
"L  c #B3AD36",
"P  c #B9AF35",
"I  c #BAB135",
"U  c #BFB63A",
"Y  c #BEBB39",
"T  c #C4BB39",
"R  c #C9BE39",
"E  c #C5C03B",
"W  c #CBC23B",
"Q  c #D0C63C",
"!  c #D5CC3E",
"~  c #D8CF3F",
"^  c #D6D13F",
"/  c #DCD143",
"(  c #E5DB43",
")  c #E9DF43",
"_  c #E7E044",
"`  c #EDE445",
"'  c #EFE946",
"]  c #F2E646",
"[  c #F4EA47",
"{  c #F9EC47",
"}  c #F2E448",
"|  c #F3E848",
" . c #FBEE48",
".. c #FFF347",
"X. c #FEF34A",
"o. c #FFFD4D",
"O. c #FFFF50",
"+. c #FFFF59",
"@. c None",
/* pixels */
"@.@.@.@.@.@.@.@.@.@.@.. a N J I I H M a   @.@.@.@.@.@.@.@.@.@.@.",
"@.@.@.@.@.@.@.@.@.> C ^ E E E E E E T W ~ m # @.@.@.@.@.@.@.@.@.",
"@.@.@.@.@.@.@.0 X.. m m M < c c c c c c c c m %   @.@.@.@.@.@.@.",
"@.@.@.@.@.@.V o.O.# L . s s o. . . .o.o.o.{ X.4 B z @.@.@.@.@.@.",
"@.@.@.@.  R  . .O.# K   p j o. . .O.  u w  .X.4 m  .J @.@.@.@.@.",
"@.@.@.@.R {  . .O.# K   i j o. . .O.u +.r  .X.4 b  . .J @.@.@.@.",
"@.@.@.V  . . . .O.# J   p s o. . .o.w w Z  .o.4 m  . . .j @.@.@.",
"@.@.0 o. . . . .o.# K   p j o. . . . . . . .X.5 c  . . .o.: @.@.",
"@.@._  . . . . .O.# K   p s o. . . . . . . .o.4 m  . . . .T @.@.",
"@.i  . . . . . .O.# G   y j o. . . . . . . . .6 c  . . . .o.6 @.",
"@.W  . . . . . .o.@ o.o.X.p o.X.o.X.X.X.X.o.I . [  . . . .{ A @.",
". o. . . . . . .o..         5 4 5 5 5 5 5 0 . {  . . . . .{ o.  ",
"s  . . . . . . .o.$   e v A J J V g %   . $ { {  . . . . . .X.q ",
"N  . . . . . . .X.D W n  . .d V  .T D / g [  . . . . . . . . .x ",
"J  . . . . . . .o.0   o G S = 7 U 6     Q {  . . . . . . . . .N ",
"I  . . . . . . .J   X X & - 9 - X o o X 2 o. . . . . . . . . .Z ",
"I  . . . . . . .(   X $   & * X X o   X p  . . . . . . . . . .Z ",
"J  . . . . . . . .S 8 O.} O.y / | o.V l ` {  . . . . . . . . .N ",
"M  . . . . . . .o.. 3 x L ! ` ( R C f     !  .{  . . . . . . .k ",
"a  . . . . . . .o.$ 6 6 8 8 o < < 5 6 5 6 . ! {  . . . . . .o.6 ",
"  o. . . . . . .o.% ^ a p ' r o.X.X.X.X.X. .O ^  . . . . . . .@.",
"@.I  . . . . . .o.% K     ^ w  . . . .{  . .{ + ^  . . . . .V @.",
"@.r X. . . . . .o.# K     ^ r X.X.X.X.o.X.{  .M . o. . . .o.2 @.",
"@.@.^  . . . . .O.# J     ^ w  .D e q q q o. .b . o. . . .J @.@.",
"@.@., o. . . . .o.% K     ^ r  .c Q o.O.% o. .m . o. . .o.+ @.@.",
"@.@.@.z  . . . .o.% K     ^ r  .c T  .o.% o. .m . o.{ o.r @.@.@.",
"@.@.@.@.J  . . .o.% J     ^ w  .c C T Q % o. .c . o.X.n @.@.@.@.",
"@.@.@.@.@.H X. .o.% K     ^ w  .Y c c c M X. .m . o.b @.@.@.@.@.",
"@.@.@.@.@.@.j o.o.% ^ p a [ r .. . . . . . . .m , i @.@.@.@.@.@.",
"@.@.@.@.@.@.@.: ! O < < , < + t t t y y t r i < . @.@.@.@.@.@.@.",
"@.@.@.@.@.@.@.@.@., N ( ' _ ` ` ` ` _ ` ) b ; @.@.@.@.@.@.@.@.@.",
"@.@.@.@.@.@.@.@.@.@.@.  6 z m Z C n j 4 @.@.@.@.@.@.@.@.@.@.@.@."
};
