/* XPM */
static char *d355a57836724214fa1ab4a88c787c32[] = {
/* columns rows colors chars-per-pixel */
"16 16 155 2 ",
"   c black",
".  c #000001",
"X  c #15161A",
"o  c #24220D",
"O  c #28250E",
"+  c #2B290C",
"@  c #3E3B15",
"#  c #3D3A16",
"$  c #4A4A16",
"%  c #4D4916",
"&  c #44421A",
"*  c #4B4618",
"=  c #48441D",
"-  c #545219",
";  c #575319",
":  c #58571A",
">  c #5B561A",
",  c #5C571A",
"<  c #5D571A",
"1  c #5A591B",
"2  c #5F5B1F",
"3  c #5E5D1C",
"4  c #5F5D1C",
"5  c #615B1B",
"6  c #625C1E",
"7  c #645E1C",
"8  c #69641F",
"9  c #6C671F",
"0  c #575620",
"q  c #5A5626",
"w  c #6E6B20",
"e  c #6D6922",
"r  c #6E6922",
"t  c #6F6D21",
"y  c #756E25",
"u  c #737122",
"i  c #757122",
"p  c #757323",
"a  c #747423",
"s  c #767124",
"d  c #787724",
"f  c #777824",
"g  c #7B7A25",
"h  c #7F7E26",
"j  c #817A26",
"k  c #817C25",
"l  c #807F27",
"z  c #837E26",
"x  c #827F26",
"c  c #858027",
"v  c #848327",
"b  c #818128",
"n  c #838328",
"m  c #848329",
"M  c #848428",
"N  c #848429",
"B  c #858429",
"V  c #868528",
"C  c #888328",
"Z  c #888529",
"A  c #8A8629",
"S  c #88842D",
"D  c #8B872C",
"F  c #88882A",
"G  c #8B882A",
"H  c #948B2A",
"J  c #908D2B",
"K  c #978E2B",
"L  c #978F2B",
"P  c #948F2E",
"I  c #97902B",
"U  c #96902C",
"Y  c #97902C",
"T  c #98922D",
"R  c #9A932D",
"E  c #99942D",
"W  c #99952D",
"Q  c #9B972D",
"!  c #9A972F",
"~  c #9C942D",
"^  c #9B992F",
"/  c #9D982E",
"(  c #9C992E",
")  c #9F9C2F",
"_  c #9F9930",
"`  c #9E9B30",
"'  c #A1982E",
"]  c #A59A2F",
"[  c #A59B2F",
"{  c #A59C2F",
"}  c #A79C2F",
"|  c #A49E30",
" . c #A79E30",
".. c #A79F30",
"X. c #A89F30",
"o. c #A6A031",
"O. c #A8A031",
"+. c #A9A431",
"@. c #ACA936",
"#. c #B1AA33",
"$. c #B2AA33",
"%. c #B3AB33",
"&. c #B5AB34",
"*. c #B5AD35",
"=. c #B7AE34",
"-. c #B7B135",
";. c #BCB336",
":. c #BDB436",
">. c #BCB537",
",. c #BBB837",
"<. c #BEB538",
"1. c #BFBB39",
"2. c #C1B938",
"3. c #C2BB38",
"4. c #C4BC39",
"5. c #C5BD39",
"6. c #C6BD39",
"7. c #C6BE3B",
"8. c #C7C03A",
"9. c #C5C63D",
"0. c #CAC23B",
"q. c #CAC33B",
"w. c #CBC43B",
"e. c #D1C93D",
"r. c #D7CB3D",
"t. c #D8CD3E",
"y. c #DFD541",
"u. c #E5D941",
"i. c #E9DD43",
"p. c #F0E846",
"a. c #FBED47",
"s. c #FAED48",
"d. c #FBED48",
"f. c #F9EE48",
"g. c #FBEE48",
"h. c #FCEE48",
"j. c #FCEF48",
"k. c #FDEF48",
"l. c #FDF049",
"z. c #FEF049",
"x. c #FFF249",
"c. c #FFF349",
"v. c #FFF24A",
"b. c #FFF54A",
"n. c #FFF64A",
"m. c #FFF64B",
"M. c #FFF74B",
"N. c #FFF94C",
"B. c #FFFD4C",
"V. c #FFFC4D",
"C. c #FFFF4D",
"Z. c #FFFF4F",
"A. c #FFFF51",
"S. c #FFFF58",
"D. c None",
/* pixels */
"D.D.D.D.D.x +.2.2.{ x D.D.D.D.D.",
"D.D.D.C G a : 1.$.9.,.i - D.D.D.",
"D.D.&.x.n : 7 Z.A.2 L U 0.X.D.D.",
"D.Z x.d.v : 7 Z.M.L i.U 3.M.d D.",
"D.M.d.d.N $ , Z.d.d.f./ :.d.d.D.",
"` j.d.d.n J % ! T '  .> M.d.x.^ ",
":.d.d.d.@.r y.U <.r * Z.h.f.f.=.",
"t.d.j.x.s . q X & . 6.f.h.h.f.6.",
"r.h.h.f.X.1 S = D # u.f.h.h.f.6.",
";.f.h.h.b # y k 6 o o M.f.h.f.=.",
"( j.f.h.m Z ^ { Z.B.Z.7 x.j.j.T ",
"D.x.h.f.N 6 i ' $.L e.0.d j.p.D.",
"D.g M.f.N 6 u { Q S.x 3.x N.r D.",
"D.D.} M.N : t { n Q ` 6.N L D.D.",
"D.D.D.i x 8 9 , ] { ] z + D.D.D.",
"D.D.D.D.D.Q -.w.8.$./ D.D.D.D.D."
};
